<svg width="742" height="203" viewBox="0 0 742 203" fill="none" xmlns="http://www.w3.org/2000/svg">
<path d="M71.3695 118.333L58.0337 104.944C57.1945 107.772 55.6961 110.329 53.6283 112.405L14.1301 152.06C13.291 152.903 12.8115 154.046 12.8115 155.249C12.8115 156.453 13.291 157.596 14.1301 158.439L43.9486 188.375L70.0509 162.079C82.2181 148.961 83.9862 130.999 71.3695 118.302V118.333Z" fill="#4BBECD"/>
<path d="M116.741 70.6442L50.032 3.7007C47.6645 1.32383 44.5179 0 41.1614 0C37.805 0 34.6583 1.32383 32.2908 3.7007L3.64115 32.5541C-1.21372 37.4583 -1.21372 45.4313 3.64115 50.3355L39.0037 85.9284L45.8664 92.8484C49.6125 96.7297 49.5825 102.928 45.7765 106.779L6.27835 146.433C3.91086 148.81 2.59226 151.969 2.59226 155.339C2.59226 158.709 3.91086 161.868 6.27835 164.245L43.8885 202.004L74.8757 170.894L116.741 128.863C132.715 112.826 132.715 86.7107 116.741 70.6743V70.6442ZM70.0508 162.109L43.9485 188.405L14.13 158.468C13.2909 157.626 12.8114 156.482 12.8114 155.279C12.8114 154.075 13.2909 152.932 14.13 152.09L53.6282 112.435C55.696 110.359 57.1945 107.802 58.0336 104.973L71.3695 118.362C83.9861 131.029 82.218 149.021 70.0508 162.139V162.109ZM109.999 122.093L89.8299 142.342C90.0097 130.517 85.4845 119.114 77.0035 110.6L52.7592 86.2594L10.384 43.596C9.21524 42.4226 9.21524 40.4971 10.384 39.3237L39.0337 10.4703C40.1725 9.32697 42.1504 9.32697 43.2892 10.4703L109.999 77.4439C122.256 89.7495 122.256 109.787 109.999 122.093Z" fill="white"/>
<path d="M179.105 148.57V28.9746H200.623V71.0964C202.001 69.7124 204.938 67.9974 209.074 66.1621C213.209 64.2967 218.304 63.3941 223.998 63.3941C232.299 63.3941 239.372 65.4099 245.216 69.4115C251.059 73.4131 255.525 78.6783 258.581 85.2975C261.668 91.7662 263.196 99.1976 263.196 107.201C263.196 115.836 261.189 123.568 257.353 130.669C253.367 137.769 247.823 143.486 240.6 147.788C233.378 152.121 224.777 154.106 214.768 154.106C207.396 154.106 200.623 153.655 194.329 152.422C188.036 151.188 182.941 149.804 179.105 148.57ZM200.623 101.213V133.617C202.301 134.249 204.009 134.55 205.837 135.001C207.695 135.302 210.602 135.452 214.438 135.452C220.282 135.452 225.197 134.219 229.182 131.601C233.018 128.984 236.105 125.433 238.263 121.251C240.271 117.099 241.35 112.616 241.35 107.833C241.35 103.35 240.57 99.1976 239.192 95.3465C237.663 91.4954 235.356 88.246 232.419 85.9293C229.332 83.4621 225.347 82.379 220.432 82.379C213.989 82.379 209.044 84.0639 205.687 87.3133C202.301 90.7131 200.623 95.3465 200.623 101.213Z" fill="white"/>
<path d="M275.634 151.217V65.2584H296.222L296.851 76.0596C298.08 74.3748 299.938 72.5094 302.246 70.644C304.403 68.7786 307.31 67.0937 310.547 65.7097C313.933 64.3257 317.919 63.5435 322.534 63.5435C324.692 63.5435 326.52 63.6939 328.078 63.9948C329.757 64.1452 331.465 64.6266 333.143 65.2283L328.827 85.5972C325.921 84.5141 322.534 83.9123 318.848 83.9123C313.004 83.9123 307.79 85.9282 303.624 89.6289C299.309 93.48 297.181 98.5647 297.181 104.913V151.217H275.664H275.634Z" fill="white"/>
<path d="M396.915 151.217L396.286 143.184C393.978 145.952 390.442 148.6 385.677 150.736C380.912 152.902 375.518 153.985 369.854 153.985C365.239 153.985 360.623 153.053 356.008 151.067C351.543 149.201 347.707 146.133 344.8 141.95C341.713 137.798 340.335 132.533 340.335 126.215C340.335 116.346 343.721 108.765 350.644 103.379C357.567 97.9934 366.797 95.3458 377.855 95.3458C380.013 95.3458 382.47 95.3458 385.377 95.4962C388.134 95.6466 391.82 95.7971 396.286 96.128V94.1122C396.286 89.7797 394.608 86.4099 391.221 83.9127C387.835 81.4456 383.369 80.3624 377.855 80.3624C371.862 80.3624 366.947 81.1447 363.261 82.6791C359.724 84.2136 356.488 85.9285 353.581 87.7638L343.751 73.1115C346.059 71.4266 348.816 69.7116 352.053 68.1772C355.139 66.4923 359.125 65.0783 363.74 64.0252C368.355 62.9421 374.049 62.3403 380.792 62.3403C391.85 62.3403 400.631 65.2588 407.224 71.1257C413.667 76.8423 417.054 84.3941 417.054 93.5104V151.217H396.915ZM396.316 120.799V112.465C393.559 112.164 390.472 112.014 387.235 111.833C383.999 111.653 381.392 111.683 379.713 111.683C372.791 111.683 367.876 113.067 365.119 115.835C362.362 118.453 360.983 121.702 360.983 125.252C360.983 128.802 362.212 131.721 364.819 133.887C367.426 135.903 371.442 136.986 376.507 136.986C379.893 136.986 383.13 136.204 386.037 134.82C389.123 133.285 391.581 131.27 393.409 128.802C395.417 126.486 396.316 123.718 396.316 120.769V120.799Z" fill="white"/>
<path d="M429.341 151.217V65.2586H449.929L450.558 74.9767C452.716 72.5096 455.953 70.0425 460.088 67.4249C464.224 64.8073 469.618 63.4233 476.241 63.4233C486.85 63.4233 495.001 66.6727 500.695 73.1414C506.389 79.4597 509.146 88.1248 509.146 99.0764V151.247H487.629V99.2269C487.629 93.8112 486.101 89.6592 483.164 86.5602C480.257 83.4613 476.241 81.9268 471.626 81.9268C465.632 81.9268 460.718 84.2435 456.702 88.5761C452.866 93.059 450.858 98.2942 450.858 104.793V151.247H429.341V151.217Z" fill="white"/>
<path d="M585.207 151.218L584.577 142.884C582.42 145.351 579.183 147.818 575.048 150.436C570.912 152.903 565.518 154.136 559.074 154.136C552.631 154.136 546.937 152.452 541.243 149.052C535.399 145.652 530.784 140.567 527.098 133.918C523.262 127.269 521.404 119.266 521.404 109.848C521.404 103.049 522.483 97.1818 524.311 92.0971C526.319 86.862 528.776 82.6799 531.683 79.1296C534.92 75.2785 538.606 72.1795 542.592 69.8628C546.578 67.6966 550.593 66.0117 554.429 64.9286C558.415 63.9959 561.802 63.3941 564.589 63.3941C568.275 63.3941 571.361 63.5445 573.339 63.8454C575.497 64.1463 577.475 64.6277 579.033 65.2294C580.712 65.6807 582.57 66.463 584.577 67.2453V28.9746H606.095V151.188H585.177L585.207 151.218ZM584.607 113.098V86.7115C580.921 83.6126 574.928 82.0781 566.926 82.0781C562.79 82.0781 559.404 83.0108 556.467 84.5453C553.56 86.2301 551.073 88.3964 549.095 91.1945C545.109 96.2792 543.251 102.447 543.251 109.879C543.251 117.31 545.109 123.297 548.645 128.232C552.332 133.015 557.726 135.483 564.619 135.483C569.533 135.483 573.519 134.399 576.456 132.083C579.363 129.766 581.521 126.848 582.749 123.297C583.978 119.897 584.607 116.498 584.607 113.098Z" fill="white"/>
<path d="M681.584 151.218L680.954 142.884C678.797 145.351 675.56 147.818 671.424 150.436C667.109 152.903 661.895 154.136 655.451 154.136C649.008 154.136 643.314 152.452 637.47 149.052C631.776 145.652 627.011 140.567 623.325 133.918C619.639 127.269 617.781 119.266 617.781 109.848C617.781 103.049 618.71 97.1818 620.688 92.0971C622.696 86.862 625.004 82.6799 627.911 79.1296C631.297 75.2785 634.983 72.1795 638.969 69.8628C642.955 67.6966 646.97 66.0117 650.806 64.9286C654.642 63.9959 658.029 63.3941 660.786 63.3941C664.622 63.3941 667.559 63.5445 669.686 63.8454C671.844 64.1463 673.672 64.6277 675.38 65.2294C677.059 65.6807 678.917 66.463 680.924 67.2453V28.9746H702.292V151.188H681.554L681.584 151.218ZM680.984 113.098V86.7115C677.298 83.6126 671.305 82.0781 663.303 82.0781C659.167 82.0781 655.631 83.0108 652.844 84.5453C649.937 86.2301 647.45 88.3964 645.322 91.1945C641.486 96.2792 639.478 102.447 639.478 109.879C639.478 117.31 641.336 123.297 645.022 128.232C648.709 133.015 653.923 135.483 660.846 135.483C665.91 135.483 669.926 134.399 672.833 132.083C675.74 129.766 677.748 126.848 679.126 123.297C680.355 119.897 680.984 116.498 680.984 113.098Z" fill="white"/>
<path d="M718.954 51.6602V28.9746H742V51.6602H718.954ZM719.703 151.218V65.2595H741.221V151.218H719.703Z" fill="white"/>
<path d="M109.808 77.955L42.8884 10.8594C41.746 9.71352 39.7618 9.71352 38.6194 10.8594L9.87934 39.7784C8.70689 40.9544 8.70689 42.8844 9.87934 44.0604L52.3582 86.7905L76.679 111.186C85.1868 119.72 89.7263 131.179 89.5459 143L109.778 122.705C122.074 110.372 122.074 90.2885 109.778 77.955H109.808Z" fill="#001D2E"/>
</svg>
